<svg width="26" height="10" viewBox="0 0 26 10" fill="none" xmlns="http://www.w3.org/2000/svg">
<path d="M1 4.35C0.641015 4.35 0.35 4.64101 0.35 5C0.35 5.35899 0.641015 5.65 1 5.65V4.35ZM25.4596 5.45962C25.7135 5.20578 25.7135 4.79422 25.4596 4.54038L21.323 0.403806C21.0692 0.149965 20.6576 0.149965 20.4038 0.403806C20.15 0.657647 20.15 1.0692 20.4038 1.32304L24.0808 5L20.4038 8.67696C20.15 8.9308 20.15 9.34235 20.4038 9.59619C20.6576 9.85003 21.0692 9.85003 21.323 9.59619L25.4596 5.45962ZM1 5.65L25 5.65V4.35L1 4.35V5.65Z" fill="#2697FF"/>
</svg>
