<svg width="10" height="10" viewBox="0 0 10 10" fill="none" xmlns="http://www.w3.org/2000/svg">
<g clip-path="url(#clip0_1255_721)">
<path d="M10.0117 2.75166C9.96556 2.57508 9.892 2.41658 9.74331 2.2988C9.49417 2.10141 9.13236 2.09727 8.8828 2.29621C8.8345 2.33471 8.78908 2.37727 8.74536 2.42099C7.52747 3.63838 6.30994 4.8561 5.09269 6.0741C5.06525 6.10158 5.04153 6.13277 4.98622 6.1968C4.95744 6.14785 4.94367 6.10796 4.91683 6.08108C3.69105 4.85313 2.46364 3.62685 1.23783 2.39894C1.02172 2.18246 0.77436 2.09185 0.473916 2.18463C0.0273601 2.32255 -0.153862 2.89241 0.131332 3.26252C0.163082 3.30374 0.197694 3.34321 0.234471 3.38002C1.64547 4.79171 3.05667 6.20319 4.46839 7.61419C4.73222 7.87788 5.06011 7.93191 5.35769 7.7566C5.42958 7.71424 5.4935 7.65505 5.55305 7.59555C6.92842 6.22199 8.30186 4.84655 9.67822 3.47402C9.83075 3.32191 9.96683 3.16497 10.0118 2.94735C10.0117 2.88213 10.0117 2.81688 10.0117 2.75166Z" fill="white"/>
</g>
<defs>
<clipPath id="clip0_1255_721">
<rect width="10" height="10" fill="white" transform="matrix(-4.37114e-08 1 1 4.37114e-08 0 0)"/>
</clipPath>
</defs>
</svg>
