<svg width="4912" height="209" viewBox="0 0 4912 209" fill="none" xmlns="http://www.w3.org/2000/svg">
<g clip-path="url(#clip0_1320_18)">
<path d="M0 41.8L34.1111 62.7C68.2222 83.6 136.444 125.4 204.667 121.902C272.889 118.576 341.111 69.5245 409.333 66.1976C477.556 62.7 545.778 104.5 614 111.452C682.222 118.576 750.444 90.4245 818.667 80.1024C886.889 69.5245 955.111 76.7755 1023.33 87.0976C1091.56 97.6755 1159.78 111.324 1228 132.352C1296.22 153.124 1364.44 181.276 1432.67 184.602C1500.89 188.1 1569.11 167.2 1637.33 163.702C1705.56 160.376 1773.78 174.024 1842 181.148C1910.22 188.1 1978.44 188.1 2046.67 181.148C2114.89 174.024 2183.11 160.376 2251.33 139.348C2319.56 118.576 2387.78 90.4245 2456 73.15C2524.22 55.8755 2592.44 48.6245 2660.67 45.2976C2728.89 41.8 2797.11 41.8 2865.33 62.7C2933.56 83.6 3001.78 125.4 3070 142.802C3138.22 160.376 3206.44 153.124 3274.67 135.85C3342.89 118.576 3411.11 90.4245 3479.33 69.6524C3547.56 48.6245 3615.78 34.9755 3684 34.8476C3752.22 34.9755 3820.44 48.6245 3888.67 76.6476C3956.89 104.5 4025.11 146.3 4093.33 160.248C4161.56 174.024 4229.78 160.376 4298 156.75C4366.22 153.124 4434.44 160.376 4502.67 156.75C4570.89 153.124 4639.11 139.476 4707.33 146.3C4775.56 153.124 4843.78 181.276 4877.89 195.052L4912 209V6.19888e-06H4877.89C4843.78 6.19888e-06 4775.56 6.19888e-06 4707.33 6.19888e-06C4639.11 6.19888e-06 4570.89 6.19888e-06 4502.67 6.19888e-06C4434.44 6.19888e-06 4366.22 6.19888e-06 4298 6.19888e-06C4229.78 6.19888e-06 4161.56 6.19888e-06 4093.33 6.19888e-06C4025.11 6.19888e-06 3956.89 6.19888e-06 3888.67 6.19888e-06C3820.44 6.19888e-06 3752.22 6.19888e-06 3684 6.19888e-06C3615.78 6.19888e-06 3547.56 6.19888e-06 3479.33 6.19888e-06C3411.11 6.19888e-06 3342.89 6.19888e-06 3274.67 6.19888e-06C3206.44 6.19888e-06 3138.22 6.19888e-06 3070 6.19888e-06C3001.78 6.19888e-06 2933.56 6.19888e-06 2865.33 6.19888e-06C2797.11 6.19888e-06 2728.89 6.19888e-06 2660.67 6.19888e-06C2592.44 6.19888e-06 2524.22 6.19888e-06 2456 6.19888e-06C2387.78 6.19888e-06 2319.56 6.19888e-06 2251.33 6.19888e-06C2183.11 6.19888e-06 2114.89 6.19888e-06 2046.67 6.19888e-06C1978.44 6.19888e-06 1910.22 6.19888e-06 1842 6.19888e-06C1773.78 6.19888e-06 1705.56 6.19888e-06 1637.33 6.19888e-06C1569.11 6.19888e-06 1500.89 6.19888e-06 1432.67 6.19888e-06C1364.44 6.19888e-06 1296.22 6.19888e-06 1228 6.19888e-06C1159.78 6.19888e-06 1091.56 6.19888e-06 1023.33 6.19888e-06C955.111 6.19888e-06 886.889 6.19888e-06 818.667 6.19888e-06C750.444 6.19888e-06 682.222 6.19888e-06 614 6.19888e-06C545.778 6.19888e-06 477.556 6.19888e-06 409.333 6.19888e-06C341.111 6.19888e-06 272.889 6.19888e-06 204.667 6.19888e-06C136.444 6.19888e-06 68.2222 6.19888e-06 34.1111 6.19888e-06H0V41.8Z" fill="url(#paint0_linear_1320_18)"/>
</g>
<defs>
<linearGradient id="paint0_linear_1320_18" x1="0" y1="0" x2="0" y2="209" gradientUnits="userSpaceOnUse">
<stop stop-color="#212332"/>
<stop offset="1" stop-color="#2A2D3E"/>
</linearGradient>
<clipPath id="clip0_1320_18">
<rect width="4912" height="209" fill="white" transform="matrix(1 0 0 -1 0 209)"/>
</clipPath>
</defs>
</svg>
