<svg width="15" height="15" viewBox="0 0 15 15" fill="none" xmlns="http://www.w3.org/2000/svg">
<path d="M13.4581 4.44436C13.4676 4.5776 13.4676 4.71087 13.4676 4.84411C13.4676 8.90817 10.3744 13.5909 4.72081 13.5909C2.97905 13.5909 1.36104 13.0865 0 12.2109C0.247471 12.2394 0.485391 12.2489 0.742383 12.2489C2.17954 12.2489 3.50253 11.7635 4.559 10.9355C3.20748 10.9069 2.07486 10.0218 1.68463 8.8035C1.875 8.83203 2.06534 8.85107 2.26523 8.85107C2.54124 8.85107 2.81728 8.81299 3.07424 8.7464C1.66561 8.46084 0.609111 7.22355 0.609111 5.72926V5.6912C1.01836 5.91963 1.49429 6.06239 1.99869 6.08141C1.17064 5.52937 0.628154 4.58712 0.628154 3.52112C0.628154 2.95007 0.78041 2.42659 1.04692 1.96974C2.56025 3.83521 4.83501 5.05347 7.38574 5.18674C7.33816 4.95831 7.3096 4.72039 7.3096 4.48244C7.3096 2.78826 8.68017 1.4082 10.3838 1.4082C11.269 1.4082 12.0685 1.77939 12.63 2.37901C13.3248 2.24577 13.991 1.98878 14.5812 1.63663C14.3527 2.35048 13.8673 2.9501 13.2296 3.33078C13.8483 3.26419 14.4479 3.09283 14.9999 2.85491C14.5812 3.46402 14.0577 4.00651 13.4581 4.44436Z" fill="white"/>
</svg>
