<svg width="15" height="15" viewBox="0 0 15 15" fill="none" xmlns="http://www.w3.org/2000/svg">
<g clip-path="url(#clip0_1258_936)">
<path d="M7.11719 0C7.42969 0 7.74219 0 8.05469 0C8.23438 0.0195313 8.41406 0.0390624 8.58984 0.0664061C10.2734 0.324219 11.7227 1.03125 12.9062 2.27344C13.9531 3.375 14.6289 4.66406 14.8867 6.16406C14.9336 6.43359 14.9609 6.70313 15 6.97266C15 7.28516 15 7.59766 15 7.91016C14.9922 7.95703 14.9766 8.00391 14.9727 8.05078C14.9062 8.88281 14.707 9.68359 14.3633 10.4453C12.6016 14.3594 7.87109 16.0039 4.07031 14.0273C4.00391 13.9922 3.91016 13.9844 3.83984 14C2.95703 14.2227 2.07422 14.4531 1.19531 14.6836C0.816406 14.7852 0.4375 14.8906 0.0585938 14.9961C0.0390625 14.9766 0.0195312 14.957 0 14.9375C0.015625 14.8984 0.0390626 14.8594 0.0507814 14.8203C0.375 13.6367 0.703125 12.4531 1.02344 11.2695C1.04297 11.1953 1.02734 11.0938 0.992187 11.0273C0.140625 9.46484 -0.125 7.80469 0.191406 6.05859C0.773438 2.82813 3.36719 0.625 6.28516 0.117188C6.55859 0.0703125 6.83984 0.0390625 7.11719 0ZM1.80469 13.1992C1.87109 13.1836 1.91016 13.1797 1.94531 13.168C2.62891 12.9922 3.3125 12.8164 3.99609 12.6328C4.10547 12.6055 4.1875 12.6211 4.28125 12.6758C5.71094 13.5313 7.23828 13.8086 8.86719 13.4453C11.9961 12.7461 14.2891 9.76953 13.6367 6.25781C13.0508 3.08594 10.0352 0.882812 6.83594 1.26562C4.98828 1.48828 3.51953 2.35938 2.45312 3.88672C1.5625 5.16406 1.19531 6.58984 1.37109 8.14453C1.48047 9.11328 1.82031 9.9961 2.35156 10.8086C2.40625 10.8945 2.42188 10.9688 2.39062 11.0664C2.30469 11.3594 2.22266 11.6563 2.14062 11.9531C2.03125 12.3594 1.92187 12.7656 1.80469 13.1992Z" fill="white"/>
<path d="M9.50403 10.9691C9.00012 10.9886 8.57044 10.7933 8.12512 10.641C6.8634 10.2074 5.89075 9.38707 5.05872 8.37535C4.66028 7.88707 4.25794 7.4027 3.99622 6.82457C3.71887 6.2152 3.60559 5.5902 3.89465 4.95738C4.01965 4.68785 4.21106 4.44567 4.38684 4.20348C4.49622 4.05504 4.66419 3.98863 4.84778 3.98082C5.01184 3.97301 5.17981 3.97691 5.34387 3.98473C5.49231 3.99254 5.56653 4.10191 5.61731 4.2191C5.7345 4.48473 5.84778 4.75817 5.96106 5.0277C6.05091 5.24254 6.13684 5.46129 6.2345 5.67223C6.30091 5.82067 6.3009 5.95738 6.20325 6.08629C6.06653 6.27379 5.9259 6.46129 5.77747 6.64488C5.62512 6.83629 5.61731 6.89098 5.74231 7.10191C6.33997 8.0902 7.16028 8.81676 8.2345 9.25035C8.46497 9.3441 8.54309 9.32848 8.70325 9.13316C8.87903 8.91832 9.05481 8.70348 9.22669 8.48473C9.33997 8.3402 9.41419 8.30113 9.59387 8.36754C9.83997 8.46129 10.0782 8.57457 10.3165 8.68395C10.4806 8.75816 10.6368 8.84801 10.8009 8.92223C10.9181 8.97301 11.0431 9.00426 11.1642 9.05113C11.2657 9.0902 11.3165 9.17223 11.3126 9.2816C11.3048 9.7816 11.1993 10.2386 10.754 10.5511C10.3751 10.8207 9.96497 10.9964 9.50403 10.9691Z" fill="white"/>
</g>
<defs>
<clipPath id="clip0_1258_936">
<rect width="15" height="15" fill="white"/>
</clipPath>
</defs>
</svg>
